# xmcd
#
# Track frame offsets:
#	150
#	16261
#	29556
#	47172
#	59821
#	74745
#	86626
#	97212
#	112395
#	124378
#	135291
#	145953
#	161705
#	169926
#	184501
#	201262
#	214055
#	227385
#	241348
#	253293
#
# Disc length: 3495 seconds
#
# Revision: 0
# Processed by: cddbd v1.5.2PL0 Copyright (c) Steve Scherf et al.
# Submitted via: EasyCDDAExtractor 16.1.0.1
#
DISCID=3a0da514
DTITLE=Chocolate Watchband - Melts In Your Brain... 1/2
DYEAR=2005
DGENRE=
TTITLE0=Chocolate Watchband - Let's Talk About Girls [New Aguilar Vocal]
TTITLE1=Chocolate Watchband - Sweet Young Thing
TTITLE2=Chocolate Watchband - Baby Blue
TTITLE3=The Hogs - Blues Theme
TTITLE4=The Hogs - Loose Lip Sync Ship
TTITLE5=Chocolate Watchband - Don't Need Your Lovin'
TTITLE6=Chocolate Watchband - Sitting There Standing
TTITLE7=Chocolate Watchband - Misty Lane
TTITLE8=Chocolate Watchband - She Weaves A Tender Trap
TTITLE9=Chocolate Watchband - Are You Gonna Be There (At The Love In)
TTITLE10=Chocolate Watchband - No Way Out
TTITLE11=Chocolate Watchband - In The Midnight Hour [Original Aguilar Vocal]
TTITLE12=Chocolate Watchband - Come On
TTITLE13=Chocolate Watchband - Gone And Passes By
TTITLE14=Chocolate Watchband - I'm Not Like Everybody Else
TTITLE15=Chocolate Watchband - I Ain't No Miracle Worker
TTITLE16=Chocolate Watchband - Milk Cow Blues
TTITLE17=Chocolate Watchband - Medication [New Aguilar Vocal]
TTITLE18=Chocolate Watchband - 'Til The End Of The Day [New Aguilar Vocal]
TTITLE19=Chocolate Watchband - Psychedelic Trip [Backing Track]
EXTD=
EXTT0=
EXTT1=
EXTT2=
EXTT3=
EXTT4=
EXTT5=
EXTT6=
EXTT7=
EXTT8=
EXTT9=
EXTT10=
EXTT11=
EXTT12=
EXTT13=
EXTT14=
EXTT15=
EXTT16=
EXTT17=
EXTT18=
EXTT19=
PLAYORDER=
